<mxfile host="app.diagrams.net" modified="2023-08-31T12:00:34.190Z" agent="Mozilla/5.0 (Windows NT 10.0; Win64; x64; rv:102.0) Gecko/20100101 Firefox/102.0" etag="xYX-2rqLrVFGsPR87mYt" version="21.7.1" type="github">
  <diagram id="C5RBs43oDa-KdzZeNtuy" name="Page-1">
    <mxGraphModel dx="1434" dy="764" grid="1" gridSize="10" guides="1" tooltips="1" connect="1" arrows="1" fold="1" page="1" pageScale="1" pageWidth="827" pageHeight="1169" math="0" shadow="0">
      <root>
        <mxCell id="WIyWlLk6GJQsqaUBKTNV-0" />
        <mxCell id="WIyWlLk6GJQsqaUBKTNV-1" parent="WIyWlLk6GJQsqaUBKTNV-0" />
        <mxCell id="WIyWlLk6GJQsqaUBKTNV-2" value="" style="rounded=0;html=1;jettySize=auto;orthogonalLoop=1;fontSize=11;endArrow=block;endFill=0;endSize=8;strokeWidth=1;shadow=0;labelBackgroundColor=none;edgeStyle=orthogonalEdgeStyle;" parent="WIyWlLk6GJQsqaUBKTNV-1" source="WIyWlLk6GJQsqaUBKTNV-3" target="WIyWlLk6GJQsqaUBKTNV-6" edge="1">
          <mxGeometry relative="1" as="geometry" />
        </mxCell>
        <mxCell id="WIyWlLk6GJQsqaUBKTNV-3" value="Open File" style="rounded=1;whiteSpace=wrap;html=1;fontSize=12;glass=0;strokeWidth=1;shadow=0;" parent="WIyWlLk6GJQsqaUBKTNV-1" vertex="1">
          <mxGeometry x="160" y="80" width="120" height="40" as="geometry" />
        </mxCell>
        <mxCell id="WIyWlLk6GJQsqaUBKTNV-4" value="Start" style="rounded=0;html=1;jettySize=auto;orthogonalLoop=1;fontSize=11;endArrow=block;endFill=0;endSize=8;strokeWidth=1;shadow=0;labelBackgroundColor=none;edgeStyle=orthogonalEdgeStyle;" parent="WIyWlLk6GJQsqaUBKTNV-1" source="WIyWlLk6GJQsqaUBKTNV-6" target="WIyWlLk6GJQsqaUBKTNV-10" edge="1">
          <mxGeometry y="20" relative="1" as="geometry">
            <mxPoint as="offset" />
          </mxGeometry>
        </mxCell>
        <mxCell id="WIyWlLk6GJQsqaUBKTNV-5" value="Else" style="edgeStyle=orthogonalEdgeStyle;rounded=0;html=1;jettySize=auto;orthogonalLoop=1;fontSize=11;endArrow=block;endFill=0;endSize=8;strokeWidth=1;shadow=0;labelBackgroundColor=none;entryX=0.654;entryY=0.1;entryDx=0;entryDy=0;entryPerimeter=0;" parent="WIyWlLk6GJQsqaUBKTNV-1" source="WIyWlLk6GJQsqaUBKTNV-6" target="WIyWlLk6GJQsqaUBKTNV-6" edge="1">
          <mxGeometry y="10" relative="1" as="geometry">
            <mxPoint as="offset" />
            <mxPoint x="250" y="150" as="targetPoint" />
            <Array as="points">
              <mxPoint x="380" y="210" />
              <mxPoint x="380" y="170" />
            </Array>
          </mxGeometry>
        </mxCell>
        <mxCell id="WIyWlLk6GJQsqaUBKTNV-6" value="Respond with &#39;Start&#39; to play" style="rhombus;whiteSpace=wrap;html=1;shadow=0;fontFamily=Helvetica;fontSize=12;align=center;strokeWidth=1;spacing=6;spacingTop=-4;" parent="WIyWlLk6GJQsqaUBKTNV-1" vertex="1">
          <mxGeometry x="155" y="160" width="130" height="100" as="geometry" />
        </mxCell>
        <mxCell id="WIyWlLk6GJQsqaUBKTNV-8" value="Door 2" style="rounded=0;html=1;jettySize=auto;orthogonalLoop=1;fontSize=11;endArrow=block;endFill=0;endSize=8;strokeWidth=1;shadow=0;labelBackgroundColor=none;edgeStyle=orthogonalEdgeStyle;" parent="WIyWlLk6GJQsqaUBKTNV-1" source="WIyWlLk6GJQsqaUBKTNV-10" target="WIyWlLk6GJQsqaUBKTNV-11" edge="1">
          <mxGeometry x="0.3333" y="20" relative="1" as="geometry">
            <mxPoint as="offset" />
          </mxGeometry>
        </mxCell>
        <mxCell id="WIyWlLk6GJQsqaUBKTNV-9" value="Door 1" style="edgeStyle=orthogonalEdgeStyle;rounded=0;html=1;jettySize=auto;orthogonalLoop=1;fontSize=11;endArrow=block;endFill=0;endSize=8;strokeWidth=1;shadow=0;labelBackgroundColor=none;" parent="WIyWlLk6GJQsqaUBKTNV-1" source="WIyWlLk6GJQsqaUBKTNV-10" target="WIyWlLk6GJQsqaUBKTNV-12" edge="1">
          <mxGeometry y="10" relative="1" as="geometry">
            <mxPoint as="offset" />
          </mxGeometry>
        </mxCell>
        <mxCell id="WIyWlLk6GJQsqaUBKTNV-10" value="You wake up in a temple.&amp;nbsp; There are two doors. Which door do you want to go through?" style="rhombus;whiteSpace=wrap;html=1;shadow=0;fontFamily=Helvetica;fontSize=12;align=center;strokeWidth=1;spacing=6;spacingTop=-4;" parent="WIyWlLk6GJQsqaUBKTNV-1" vertex="1">
          <mxGeometry x="135" y="320" width="170" height="130" as="geometry" />
        </mxCell>
        <mxCell id="CbEZ3sxUzoK_fMu7lVK1-1" value="Swim" style="edgeStyle=orthogonalEdgeStyle;rounded=0;orthogonalLoop=1;jettySize=auto;html=1;" parent="WIyWlLk6GJQsqaUBKTNV-1" source="WIyWlLk6GJQsqaUBKTNV-11" edge="1">
          <mxGeometry relative="1" as="geometry">
            <mxPoint x="400" y="572.5" as="targetPoint" />
          </mxGeometry>
        </mxCell>
        <mxCell id="CbEZ3sxUzoK_fMu7lVK1-3" value="" style="edgeStyle=orthogonalEdgeStyle;rounded=0;orthogonalLoop=1;jettySize=auto;html=1;" parent="WIyWlLk6GJQsqaUBKTNV-1" source="WIyWlLk6GJQsqaUBKTNV-11" target="CbEZ3sxUzoK_fMu7lVK1-2" edge="1">
          <mxGeometry relative="1" as="geometry" />
        </mxCell>
        <mxCell id="CbEZ3sxUzoK_fMu7lVK1-6" value="" style="edgeStyle=orthogonalEdgeStyle;rounded=0;orthogonalLoop=1;jettySize=auto;html=1;" parent="WIyWlLk6GJQsqaUBKTNV-1" source="WIyWlLk6GJQsqaUBKTNV-11" target="CbEZ3sxUzoK_fMu7lVK1-5" edge="1">
          <mxGeometry relative="1" as="geometry" />
        </mxCell>
        <mxCell id="CbEZ3sxUzoK_fMu7lVK1-9" value="Take the raft" style="edgeLabel;html=1;align=center;verticalAlign=middle;resizable=0;points=[];" parent="CbEZ3sxUzoK_fMu7lVK1-6" vertex="1" connectable="0">
          <mxGeometry x="-0.3171" y="5" relative="1" as="geometry">
            <mxPoint as="offset" />
          </mxGeometry>
        </mxCell>
        <mxCell id="WIyWlLk6GJQsqaUBKTNV-11" value="You open the door to a running river. There is a raft protected by a crocodile. You can risk swimming across the murky water, or you can try and take the raft from the croc." style="rounded=1;whiteSpace=wrap;html=1;fontSize=12;glass=0;strokeWidth=1;shadow=0;" parent="WIyWlLk6GJQsqaUBKTNV-1" vertex="1">
          <mxGeometry x="130" y="520" width="180" height="105" as="geometry" />
        </mxCell>
        <mxCell id="WIyWlLk6GJQsqaUBKTNV-12" value="You open to a dragon. You die." style="rounded=1;whiteSpace=wrap;html=1;fontSize=12;glass=0;strokeWidth=1;shadow=0;" parent="WIyWlLk6GJQsqaUBKTNV-1" vertex="1">
          <mxGeometry x="390" y="365" width="120" height="40" as="geometry" />
        </mxCell>
        <mxCell id="CbEZ3sxUzoK_fMu7lVK1-2" value="75% chance of death.&lt;br&gt;If you survive you are safely on the other side." style="whiteSpace=wrap;html=1;rounded=1;glass=0;strokeWidth=1;shadow=0;" parent="WIyWlLk6GJQsqaUBKTNV-1" vertex="1">
          <mxGeometry x="421" y="538.75" width="130" height="67.5" as="geometry" />
        </mxCell>
        <mxCell id="CbEZ3sxUzoK_fMu7lVK1-8" value="Fight the croc" style="edgeStyle=orthogonalEdgeStyle;rounded=0;orthogonalLoop=1;jettySize=auto;html=1;" parent="WIyWlLk6GJQsqaUBKTNV-1" source="CbEZ3sxUzoK_fMu7lVK1-5" target="CbEZ3sxUzoK_fMu7lVK1-7" edge="1">
          <mxGeometry relative="1" as="geometry" />
        </mxCell>
        <mxCell id="CbEZ3sxUzoK_fMu7lVK1-11" value="" style="edgeStyle=orthogonalEdgeStyle;rounded=0;orthogonalLoop=1;jettySize=auto;html=1;" parent="WIyWlLk6GJQsqaUBKTNV-1" source="CbEZ3sxUzoK_fMu7lVK1-5" target="CbEZ3sxUzoK_fMu7lVK1-10" edge="1">
          <mxGeometry relative="1" as="geometry" />
        </mxCell>
        <mxCell id="CbEZ3sxUzoK_fMu7lVK1-12" value="Run" style="edgeLabel;html=1;align=center;verticalAlign=middle;resizable=0;points=[];" parent="CbEZ3sxUzoK_fMu7lVK1-11" vertex="1" connectable="0">
          <mxGeometry x="-0.2875" y="1" relative="1" as="geometry">
            <mxPoint as="offset" />
          </mxGeometry>
        </mxCell>
        <mxCell id="CbEZ3sxUzoK_fMu7lVK1-5" value="30% chance of death. Followed by a crocodile when across the river." style="whiteSpace=wrap;html=1;rounded=1;glass=0;strokeWidth=1;shadow=0;" parent="WIyWlLk6GJQsqaUBKTNV-1" vertex="1">
          <mxGeometry x="160" y="727.5" width="120" height="60" as="geometry" />
        </mxCell>
        <mxCell id="CbEZ3sxUzoK_fMu7lVK1-7" value="75% chance of death. If you win you keep the skin which can be crafted into a jacket later." style="whiteSpace=wrap;html=1;rounded=1;glass=0;strokeWidth=1;shadow=0;" parent="WIyWlLk6GJQsqaUBKTNV-1" vertex="1">
          <mxGeometry x="360" y="727.5" width="130" height="72.5" as="geometry" />
        </mxCell>
        <mxCell id="CbEZ3sxUzoK_fMu7lVK1-14" value="" style="edgeStyle=orthogonalEdgeStyle;rounded=0;orthogonalLoop=1;jettySize=auto;html=1;" parent="WIyWlLk6GJQsqaUBKTNV-1" source="CbEZ3sxUzoK_fMu7lVK1-10" target="CbEZ3sxUzoK_fMu7lVK1-13" edge="1">
          <mxGeometry relative="1" as="geometry" />
        </mxCell>
        <mxCell id="CbEZ3sxUzoK_fMu7lVK1-10" value="You escape successfully into the jungle, but it&#39;s getting dark and you are cold and hungry." style="whiteSpace=wrap;html=1;rounded=1;glass=0;strokeWidth=1;shadow=0;" parent="WIyWlLk6GJQsqaUBKTNV-1" vertex="1">
          <mxGeometry x="155" y="867.5" width="130" height="72.5" as="geometry" />
        </mxCell>
        <mxCell id="CbEZ3sxUzoK_fMu7lVK1-16" value="" style="edgeStyle=orthogonalEdgeStyle;rounded=0;orthogonalLoop=1;jettySize=auto;html=1;" parent="WIyWlLk6GJQsqaUBKTNV-1" source="CbEZ3sxUzoK_fMu7lVK1-13" target="CbEZ3sxUzoK_fMu7lVK1-15" edge="1">
          <mxGeometry relative="1" as="geometry" />
        </mxCell>
        <mxCell id="CbEZ3sxUzoK_fMu7lVK1-17" value="Right" style="edgeLabel;html=1;align=center;verticalAlign=middle;resizable=0;points=[];" parent="CbEZ3sxUzoK_fMu7lVK1-16" vertex="1" connectable="0">
          <mxGeometry x="-0.2222" relative="1" as="geometry">
            <mxPoint as="offset" />
          </mxGeometry>
        </mxCell>
        <mxCell id="CbEZ3sxUzoK_fMu7lVK1-21" value="" style="edgeStyle=orthogonalEdgeStyle;rounded=0;orthogonalLoop=1;jettySize=auto;html=1;" parent="WIyWlLk6GJQsqaUBKTNV-1" source="CbEZ3sxUzoK_fMu7lVK1-13" target="CbEZ3sxUzoK_fMu7lVK1-20" edge="1">
          <mxGeometry relative="1" as="geometry" />
        </mxCell>
        <mxCell id="CbEZ3sxUzoK_fMu7lVK1-13" value="There&#39;s a fork in the road. Do you take the left or the right?" style="whiteSpace=wrap;html=1;rounded=1;glass=0;strokeWidth=1;shadow=0;" parent="WIyWlLk6GJQsqaUBKTNV-1" vertex="1">
          <mxGeometry x="140" y="1026.25" width="160" height="63.75" as="geometry" />
        </mxCell>
        <mxCell id="CbEZ3sxUzoK_fMu7lVK1-19" value="" style="edgeStyle=orthogonalEdgeStyle;rounded=0;orthogonalLoop=1;jettySize=auto;html=1;" parent="WIyWlLk6GJQsqaUBKTNV-1" source="CbEZ3sxUzoK_fMu7lVK1-15" target="CbEZ3sxUzoK_fMu7lVK1-18" edge="1">
          <mxGeometry relative="1" as="geometry" />
        </mxCell>
        <mxCell id="CbEZ3sxUzoK_fMu7lVK1-23" value="Else" style="edgeLabel;html=1;align=center;verticalAlign=middle;resizable=0;points=[];" parent="CbEZ3sxUzoK_fMu7lVK1-19" vertex="1" connectable="0">
          <mxGeometry x="-0.2175" y="-1" relative="1" as="geometry">
            <mxPoint as="offset" />
          </mxGeometry>
        </mxCell>
        <mxCell id="CbEZ3sxUzoK_fMu7lVK1-22" style="edgeStyle=orthogonalEdgeStyle;rounded=0;orthogonalLoop=1;jettySize=auto;html=1;entryX=1;entryY=0.5;entryDx=0;entryDy=0;" parent="WIyWlLk6GJQsqaUBKTNV-1" source="CbEZ3sxUzoK_fMu7lVK1-15" target="CbEZ3sxUzoK_fMu7lVK1-20" edge="1">
          <mxGeometry relative="1" as="geometry">
            <mxPoint x="455" y="1230" as="targetPoint" />
            <Array as="points">
              <mxPoint x="455" y="1161" />
              <mxPoint x="456" y="1161" />
              <mxPoint x="456" y="1203" />
            </Array>
          </mxGeometry>
        </mxCell>
        <mxCell id="CbEZ3sxUzoK_fMu7lVK1-24" value="If" style="edgeLabel;html=1;align=center;verticalAlign=middle;resizable=0;points=[];" parent="CbEZ3sxUzoK_fMu7lVK1-22" vertex="1" connectable="0">
          <mxGeometry x="0.0932" y="2" relative="1" as="geometry">
            <mxPoint as="offset" />
          </mxGeometry>
        </mxCell>
        <mxCell id="CbEZ3sxUzoK_fMu7lVK1-15" value="10% chance of seeing the crafting table and going left anyway." style="whiteSpace=wrap;html=1;rounded=1;glass=0;strokeWidth=1;shadow=0;" parent="WIyWlLk6GJQsqaUBKTNV-1" vertex="1">
          <mxGeometry x="390" y="1024.06" width="130" height="68.13" as="geometry" />
        </mxCell>
        <mxCell id="P4ZK-sbLV9sFFXoKzWSB-1" value="" style="edgeStyle=orthogonalEdgeStyle;rounded=0;orthogonalLoop=1;jettySize=auto;html=1;" edge="1" parent="WIyWlLk6GJQsqaUBKTNV-1" source="CbEZ3sxUzoK_fMu7lVK1-18" target="P4ZK-sbLV9sFFXoKzWSB-0">
          <mxGeometry relative="1" as="geometry" />
        </mxCell>
        <mxCell id="P4ZK-sbLV9sFFXoKzWSB-2" value="yes" style="edgeLabel;html=1;align=center;verticalAlign=middle;resizable=0;points=[];" vertex="1" connectable="0" parent="P4ZK-sbLV9sFFXoKzWSB-1">
          <mxGeometry x="-0.2306" y="6" relative="1" as="geometry">
            <mxPoint as="offset" />
          </mxGeometry>
        </mxCell>
        <mxCell id="P4ZK-sbLV9sFFXoKzWSB-3" style="edgeStyle=orthogonalEdgeStyle;rounded=0;orthogonalLoop=1;jettySize=auto;html=1;" edge="1" parent="WIyWlLk6GJQsqaUBKTNV-1" source="CbEZ3sxUzoK_fMu7lVK1-18" target="P4ZK-sbLV9sFFXoKzWSB-8">
          <mxGeometry relative="1" as="geometry">
            <mxPoint x="540" y="1260" as="targetPoint" />
            <Array as="points">
              <mxPoint x="673" y="1116" />
            </Array>
          </mxGeometry>
        </mxCell>
        <mxCell id="P4ZK-sbLV9sFFXoKzWSB-4" value="No" style="edgeLabel;html=1;align=center;verticalAlign=middle;resizable=0;points=[];" vertex="1" connectable="0" parent="P4ZK-sbLV9sFFXoKzWSB-3">
          <mxGeometry x="0.9038" y="-2" relative="1" as="geometry">
            <mxPoint y="-1" as="offset" />
          </mxGeometry>
        </mxCell>
        <mxCell id="CbEZ3sxUzoK_fMu7lVK1-18" value="You go along the right side of the path until you get to a plant that looks edible. Do you eat the fruit?" style="whiteSpace=wrap;html=1;rounded=1;glass=0;strokeWidth=1;shadow=0;" parent="WIyWlLk6GJQsqaUBKTNV-1" vertex="1">
          <mxGeometry x="605" y="1024.0600000000002" width="135" height="71.88" as="geometry" />
        </mxCell>
        <mxCell id="P4ZK-sbLV9sFFXoKzWSB-10" value="" style="edgeStyle=orthogonalEdgeStyle;rounded=0;orthogonalLoop=1;jettySize=auto;html=1;" edge="1" parent="WIyWlLk6GJQsqaUBKTNV-1" source="CbEZ3sxUzoK_fMu7lVK1-20" target="P4ZK-sbLV9sFFXoKzWSB-9">
          <mxGeometry relative="1" as="geometry" />
        </mxCell>
        <mxCell id="CbEZ3sxUzoK_fMu7lVK1-20" value="You find an abandoned camp with firewood left over and a falling apart crafting table." style="whiteSpace=wrap;html=1;rounded=1;glass=0;strokeWidth=1;shadow=0;" parent="WIyWlLk6GJQsqaUBKTNV-1" vertex="1">
          <mxGeometry x="150" y="1169" width="140" height="68.13" as="geometry" />
        </mxCell>
        <mxCell id="P4ZK-sbLV9sFFXoKzWSB-0" value="You die" style="whiteSpace=wrap;html=1;rounded=1;glass=0;strokeWidth=1;shadow=0;" vertex="1" parent="WIyWlLk6GJQsqaUBKTNV-1">
          <mxGeometry x="612.5" y="1181.88" width="120" height="60" as="geometry" />
        </mxCell>
        <mxCell id="P4ZK-sbLV9sFFXoKzWSB-8" value="The paths fork back together." style="rounded=1;whiteSpace=wrap;html=1;" vertex="1" parent="WIyWlLk6GJQsqaUBKTNV-1">
          <mxGeometry x="480" y="1230" width="120" height="60" as="geometry" />
        </mxCell>
        <mxCell id="P4ZK-sbLV9sFFXoKzWSB-12" value="" style="edgeStyle=orthogonalEdgeStyle;rounded=0;orthogonalLoop=1;jettySize=auto;html=1;" edge="1" parent="WIyWlLk6GJQsqaUBKTNV-1" source="P4ZK-sbLV9sFFXoKzWSB-9" target="P4ZK-sbLV9sFFXoKzWSB-11">
          <mxGeometry relative="1" as="geometry" />
        </mxCell>
        <mxCell id="P4ZK-sbLV9sFFXoKzWSB-14" value="" style="edgeStyle=orthogonalEdgeStyle;rounded=0;orthogonalLoop=1;jettySize=auto;html=1;" edge="1" parent="WIyWlLk6GJQsqaUBKTNV-1" source="P4ZK-sbLV9sFFXoKzWSB-9" target="P4ZK-sbLV9sFFXoKzWSB-13">
          <mxGeometry relative="1" as="geometry" />
        </mxCell>
        <mxCell id="P4ZK-sbLV9sFFXoKzWSB-16" value="" style="edgeStyle=orthogonalEdgeStyle;rounded=0;orthogonalLoop=1;jettySize=auto;html=1;" edge="1" parent="WIyWlLk6GJQsqaUBKTNV-1" source="P4ZK-sbLV9sFFXoKzWSB-9" target="P4ZK-sbLV9sFFXoKzWSB-15">
          <mxGeometry relative="1" as="geometry" />
        </mxCell>
        <mxCell id="P4ZK-sbLV9sFFXoKzWSB-9" value="What do you craft?" style="whiteSpace=wrap;html=1;rounded=1;glass=0;strokeWidth=1;shadow=0;" vertex="1" parent="WIyWlLk6GJQsqaUBKTNV-1">
          <mxGeometry x="160" y="1321.1950000000002" width="120" height="60" as="geometry" />
        </mxCell>
        <mxCell id="P4ZK-sbLV9sFFXoKzWSB-18" value="" style="edgeStyle=orthogonalEdgeStyle;rounded=0;orthogonalLoop=1;jettySize=auto;html=1;" edge="1" parent="WIyWlLk6GJQsqaUBKTNV-1" source="P4ZK-sbLV9sFFXoKzWSB-11" target="P4ZK-sbLV9sFFXoKzWSB-17">
          <mxGeometry relative="1" as="geometry" />
        </mxCell>
        <mxCell id="P4ZK-sbLV9sFFXoKzWSB-11" value="Jacket" style="whiteSpace=wrap;html=1;rounded=1;glass=0;strokeWidth=1;shadow=0;" vertex="1" parent="WIyWlLk6GJQsqaUBKTNV-1">
          <mxGeometry x="20" y="1461.1950000000002" width="120" height="60" as="geometry" />
        </mxCell>
        <mxCell id="P4ZK-sbLV9sFFXoKzWSB-20" value="" style="edgeStyle=orthogonalEdgeStyle;rounded=0;orthogonalLoop=1;jettySize=auto;html=1;" edge="1" parent="WIyWlLk6GJQsqaUBKTNV-1" source="P4ZK-sbLV9sFFXoKzWSB-13" target="P4ZK-sbLV9sFFXoKzWSB-19">
          <mxGeometry relative="1" as="geometry" />
        </mxCell>
        <mxCell id="P4ZK-sbLV9sFFXoKzWSB-13" value="Food" style="whiteSpace=wrap;html=1;rounded=1;glass=0;strokeWidth=1;shadow=0;" vertex="1" parent="WIyWlLk6GJQsqaUBKTNV-1">
          <mxGeometry x="350" y="1461.1950000000002" width="120" height="60" as="geometry" />
        </mxCell>
        <mxCell id="P4ZK-sbLV9sFFXoKzWSB-22" value="" style="edgeStyle=orthogonalEdgeStyle;rounded=0;orthogonalLoop=1;jettySize=auto;html=1;" edge="1" parent="WIyWlLk6GJQsqaUBKTNV-1" source="P4ZK-sbLV9sFFXoKzWSB-15" target="P4ZK-sbLV9sFFXoKzWSB-21">
          <mxGeometry relative="1" as="geometry" />
        </mxCell>
        <mxCell id="P4ZK-sbLV9sFFXoKzWSB-15" value="Wood Sword" style="whiteSpace=wrap;html=1;rounded=1;glass=0;strokeWidth=1;shadow=0;" vertex="1" parent="WIyWlLk6GJQsqaUBKTNV-1">
          <mxGeometry x="590" y="1461.1950000000002" width="120" height="60" as="geometry" />
        </mxCell>
        <mxCell id="P4ZK-sbLV9sFFXoKzWSB-24" value="" style="edgeStyle=orthogonalEdgeStyle;rounded=0;orthogonalLoop=1;jettySize=auto;html=1;" edge="1" parent="WIyWlLk6GJQsqaUBKTNV-1" source="P4ZK-sbLV9sFFXoKzWSB-17" target="P4ZK-sbLV9sFFXoKzWSB-23">
          <mxGeometry relative="1" as="geometry" />
        </mxCell>
        <mxCell id="P4ZK-sbLV9sFFXoKzWSB-25" value="If" style="edgeLabel;html=1;align=center;verticalAlign=middle;resizable=0;points=[];" vertex="1" connectable="0" parent="P4ZK-sbLV9sFFXoKzWSB-24">
          <mxGeometry x="-0.1212" y="-3" relative="1" as="geometry">
            <mxPoint as="offset" />
          </mxGeometry>
        </mxCell>
        <mxCell id="P4ZK-sbLV9sFFXoKzWSB-26" value="" style="edgeStyle=orthogonalEdgeStyle;rounded=0;orthogonalLoop=1;jettySize=auto;html=1;" edge="1" parent="WIyWlLk6GJQsqaUBKTNV-1" source="P4ZK-sbLV9sFFXoKzWSB-17" target="P4ZK-sbLV9sFFXoKzWSB-23">
          <mxGeometry relative="1" as="geometry" />
        </mxCell>
        <mxCell id="P4ZK-sbLV9sFFXoKzWSB-28" value="" style="edgeStyle=orthogonalEdgeStyle;rounded=0;orthogonalLoop=1;jettySize=auto;html=1;" edge="1" parent="WIyWlLk6GJQsqaUBKTNV-1" source="P4ZK-sbLV9sFFXoKzWSB-17" target="P4ZK-sbLV9sFFXoKzWSB-27">
          <mxGeometry relative="1" as="geometry" />
        </mxCell>
        <mxCell id="P4ZK-sbLV9sFFXoKzWSB-30" value="Else" style="edgeLabel;html=1;align=center;verticalAlign=middle;resizable=0;points=[];" vertex="1" connectable="0" parent="P4ZK-sbLV9sFFXoKzWSB-28">
          <mxGeometry x="-0.0473" y="3" relative="1" as="geometry">
            <mxPoint as="offset" />
          </mxGeometry>
        </mxCell>
        <mxCell id="P4ZK-sbLV9sFFXoKzWSB-17" value="Do you have Crocodile Skin?" style="whiteSpace=wrap;html=1;rounded=1;glass=0;strokeWidth=1;shadow=0;" vertex="1" parent="WIyWlLk6GJQsqaUBKTNV-1">
          <mxGeometry x="60" y="1601.1950000000002" width="120" height="60" as="geometry" />
        </mxCell>
        <mxCell id="P4ZK-sbLV9sFFXoKzWSB-32" value="" style="edgeStyle=orthogonalEdgeStyle;rounded=0;orthogonalLoop=1;jettySize=auto;html=1;" edge="1" parent="WIyWlLk6GJQsqaUBKTNV-1" source="P4ZK-sbLV9sFFXoKzWSB-19" target="P4ZK-sbLV9sFFXoKzWSB-31">
          <mxGeometry relative="1" as="geometry" />
        </mxCell>
        <mxCell id="P4ZK-sbLV9sFFXoKzWSB-33" value="" style="edgeStyle=orthogonalEdgeStyle;rounded=0;orthogonalLoop=1;jettySize=auto;html=1;" edge="1" parent="WIyWlLk6GJQsqaUBKTNV-1" source="P4ZK-sbLV9sFFXoKzWSB-19" target="P4ZK-sbLV9sFFXoKzWSB-31">
          <mxGeometry relative="1" as="geometry" />
        </mxCell>
        <mxCell id="P4ZK-sbLV9sFFXoKzWSB-34" value="" style="edgeStyle=orthogonalEdgeStyle;rounded=0;orthogonalLoop=1;jettySize=auto;html=1;" edge="1" parent="WIyWlLk6GJQsqaUBKTNV-1" source="P4ZK-sbLV9sFFXoKzWSB-19" target="P4ZK-sbLV9sFFXoKzWSB-31">
          <mxGeometry relative="1" as="geometry" />
        </mxCell>
        <mxCell id="P4ZK-sbLV9sFFXoKzWSB-37" value="Else" style="edgeLabel;html=1;align=center;verticalAlign=middle;resizable=0;points=[];" vertex="1" connectable="0" parent="P4ZK-sbLV9sFFXoKzWSB-34">
          <mxGeometry x="-0.0363" y="4" relative="1" as="geometry">
            <mxPoint as="offset" />
          </mxGeometry>
        </mxCell>
        <mxCell id="P4ZK-sbLV9sFFXoKzWSB-36" value="" style="edgeStyle=orthogonalEdgeStyle;rounded=0;orthogonalLoop=1;jettySize=auto;html=1;" edge="1" parent="WIyWlLk6GJQsqaUBKTNV-1" source="P4ZK-sbLV9sFFXoKzWSB-19" target="P4ZK-sbLV9sFFXoKzWSB-35">
          <mxGeometry relative="1" as="geometry" />
        </mxCell>
        <mxCell id="P4ZK-sbLV9sFFXoKzWSB-38" value="If" style="edgeLabel;html=1;align=center;verticalAlign=middle;resizable=0;points=[];" vertex="1" connectable="0" parent="P4ZK-sbLV9sFFXoKzWSB-36">
          <mxGeometry x="-0.0231" y="-4" relative="1" as="geometry">
            <mxPoint as="offset" />
          </mxGeometry>
        </mxCell>
        <mxCell id="P4ZK-sbLV9sFFXoKzWSB-19" value="Do you have Crocodile Meat?" style="whiteSpace=wrap;html=1;rounded=1;glass=0;strokeWidth=1;shadow=0;" vertex="1" parent="WIyWlLk6GJQsqaUBKTNV-1">
          <mxGeometry x="350" y="1601.1950000000002" width="120" height="60" as="geometry" />
        </mxCell>
        <mxCell id="P4ZK-sbLV9sFFXoKzWSB-40" value="" style="edgeStyle=orthogonalEdgeStyle;rounded=0;orthogonalLoop=1;jettySize=auto;html=1;" edge="1" parent="WIyWlLk6GJQsqaUBKTNV-1" source="P4ZK-sbLV9sFFXoKzWSB-21" target="P4ZK-sbLV9sFFXoKzWSB-39">
          <mxGeometry relative="1" as="geometry" />
        </mxCell>
        <mxCell id="P4ZK-sbLV9sFFXoKzWSB-41" value="" style="edgeStyle=orthogonalEdgeStyle;rounded=0;orthogonalLoop=1;jettySize=auto;html=1;" edge="1" parent="WIyWlLk6GJQsqaUBKTNV-1" source="P4ZK-sbLV9sFFXoKzWSB-21" target="P4ZK-sbLV9sFFXoKzWSB-39">
          <mxGeometry relative="1" as="geometry" />
        </mxCell>
        <mxCell id="P4ZK-sbLV9sFFXoKzWSB-44" value="Else" style="edgeLabel;html=1;align=center;verticalAlign=middle;resizable=0;points=[];" vertex="1" connectable="0" parent="P4ZK-sbLV9sFFXoKzWSB-41">
          <mxGeometry x="0.1336" y="2" relative="1" as="geometry">
            <mxPoint as="offset" />
          </mxGeometry>
        </mxCell>
        <mxCell id="P4ZK-sbLV9sFFXoKzWSB-43" value="" style="edgeStyle=orthogonalEdgeStyle;rounded=0;orthogonalLoop=1;jettySize=auto;html=1;" edge="1" parent="WIyWlLk6GJQsqaUBKTNV-1" source="P4ZK-sbLV9sFFXoKzWSB-21" target="P4ZK-sbLV9sFFXoKzWSB-42">
          <mxGeometry relative="1" as="geometry" />
        </mxCell>
        <mxCell id="P4ZK-sbLV9sFFXoKzWSB-45" value="If" style="edgeLabel;html=1;align=center;verticalAlign=middle;resizable=0;points=[];" vertex="1" connectable="0" parent="P4ZK-sbLV9sFFXoKzWSB-43">
          <mxGeometry x="-0.0694" y="4" relative="1" as="geometry">
            <mxPoint as="offset" />
          </mxGeometry>
        </mxCell>
        <mxCell id="P4ZK-sbLV9sFFXoKzWSB-21" value="Do you have Wood?" style="whiteSpace=wrap;html=1;rounded=1;glass=0;strokeWidth=1;shadow=0;" vertex="1" parent="WIyWlLk6GJQsqaUBKTNV-1">
          <mxGeometry x="590" y="1601.1950000000002" width="120" height="60" as="geometry" />
        </mxCell>
        <mxCell id="P4ZK-sbLV9sFFXoKzWSB-48" style="edgeStyle=orthogonalEdgeStyle;rounded=0;orthogonalLoop=1;jettySize=auto;html=1;entryX=0.5;entryY=0;entryDx=0;entryDy=0;" edge="1" parent="WIyWlLk6GJQsqaUBKTNV-1" source="P4ZK-sbLV9sFFXoKzWSB-23" target="P4ZK-sbLV9sFFXoKzWSB-46">
          <mxGeometry relative="1" as="geometry" />
        </mxCell>
        <mxCell id="P4ZK-sbLV9sFFXoKzWSB-23" value="Craft 1x Jacket" style="whiteSpace=wrap;html=1;rounded=1;glass=0;strokeWidth=1;shadow=0;" vertex="1" parent="WIyWlLk6GJQsqaUBKTNV-1">
          <mxGeometry x="120" y="1769.9950000000001" width="120" height="60" as="geometry" />
        </mxCell>
        <mxCell id="P4ZK-sbLV9sFFXoKzWSB-47" style="edgeStyle=orthogonalEdgeStyle;rounded=0;orthogonalLoop=1;jettySize=auto;html=1;entryX=0;entryY=0.75;entryDx=0;entryDy=0;" edge="1" parent="WIyWlLk6GJQsqaUBKTNV-1" source="P4ZK-sbLV9sFFXoKzWSB-27" target="P4ZK-sbLV9sFFXoKzWSB-46">
          <mxGeometry relative="1" as="geometry" />
        </mxCell>
        <mxCell id="P4ZK-sbLV9sFFXoKzWSB-27" value="Error: Incorrect Materials" style="whiteSpace=wrap;html=1;rounded=1;glass=0;strokeWidth=1;shadow=0;" vertex="1" parent="WIyWlLk6GJQsqaUBKTNV-1">
          <mxGeometry y="1769.9950000000001" width="120" height="60" as="geometry" />
        </mxCell>
        <mxCell id="P4ZK-sbLV9sFFXoKzWSB-49" style="edgeStyle=orthogonalEdgeStyle;rounded=0;orthogonalLoop=1;jettySize=auto;html=1;entryX=1;entryY=0.5;entryDx=0;entryDy=0;" edge="1" parent="WIyWlLk6GJQsqaUBKTNV-1" source="P4ZK-sbLV9sFFXoKzWSB-31" target="P4ZK-sbLV9sFFXoKzWSB-46">
          <mxGeometry relative="1" as="geometry" />
        </mxCell>
        <mxCell id="P4ZK-sbLV9sFFXoKzWSB-31" value="Error: Incorrect Materials" style="whiteSpace=wrap;html=1;rounded=1;glass=0;strokeWidth=1;shadow=0;" vertex="1" parent="WIyWlLk6GJQsqaUBKTNV-1">
          <mxGeometry x="294" y="1769.9950000000001" width="120" height="60" as="geometry" />
        </mxCell>
        <mxCell id="P4ZK-sbLV9sFFXoKzWSB-50" style="edgeStyle=orthogonalEdgeStyle;rounded=0;orthogonalLoop=1;jettySize=auto;html=1;entryX=1;entryY=0.75;entryDx=0;entryDy=0;" edge="1" parent="WIyWlLk6GJQsqaUBKTNV-1" source="P4ZK-sbLV9sFFXoKzWSB-35" target="P4ZK-sbLV9sFFXoKzWSB-46">
          <mxGeometry relative="1" as="geometry">
            <mxPoint x="474" y="2030" as="targetPoint" />
            <Array as="points">
              <mxPoint x="474" y="1890" />
              <mxPoint x="327" y="1890" />
              <mxPoint x="327" y="2045" />
            </Array>
          </mxGeometry>
        </mxCell>
        <mxCell id="P4ZK-sbLV9sFFXoKzWSB-35" value="Craft 1x Food" style="whiteSpace=wrap;html=1;rounded=1;glass=0;strokeWidth=1;shadow=0;" vertex="1" parent="WIyWlLk6GJQsqaUBKTNV-1">
          <mxGeometry x="414" y="1769.9950000000001" width="120" height="60" as="geometry" />
        </mxCell>
        <mxCell id="P4ZK-sbLV9sFFXoKzWSB-51" style="edgeStyle=orthogonalEdgeStyle;rounded=0;orthogonalLoop=1;jettySize=auto;html=1;entryX=1;entryY=0.25;entryDx=0;entryDy=0;" edge="1" parent="WIyWlLk6GJQsqaUBKTNV-1" source="P4ZK-sbLV9sFFXoKzWSB-39" target="P4ZK-sbLV9sFFXoKzWSB-46">
          <mxGeometry relative="1" as="geometry">
            <Array as="points">
              <mxPoint x="594" y="1930" />
              <mxPoint x="387" y="1930" />
              <mxPoint x="387" y="2015" />
            </Array>
          </mxGeometry>
        </mxCell>
        <mxCell id="P4ZK-sbLV9sFFXoKzWSB-39" value="Error: Incorrect Materials" style="whiteSpace=wrap;html=1;rounded=1;glass=0;strokeWidth=1;shadow=0;" vertex="1" parent="WIyWlLk6GJQsqaUBKTNV-1">
          <mxGeometry x="534" y="1769.9950000000001" width="120" height="60" as="geometry" />
        </mxCell>
        <mxCell id="P4ZK-sbLV9sFFXoKzWSB-52" style="edgeStyle=orthogonalEdgeStyle;rounded=0;orthogonalLoop=1;jettySize=auto;html=1;entryX=0.9;entryY=0.067;entryDx=0;entryDy=0;entryPerimeter=0;" edge="1" parent="WIyWlLk6GJQsqaUBKTNV-1">
          <mxGeometry relative="1" as="geometry">
            <mxPoint x="710" y="1825.975" as="sourcePoint" />
            <mxPoint x="224" y="2000" as="targetPoint" />
            <Array as="points">
              <mxPoint x="710" y="1855.98" />
              <mxPoint x="224" y="1855.98" />
            </Array>
          </mxGeometry>
        </mxCell>
        <mxCell id="P4ZK-sbLV9sFFXoKzWSB-42" value="Craft 1x Sword" style="whiteSpace=wrap;html=1;rounded=1;glass=0;strokeWidth=1;shadow=0;" vertex="1" parent="WIyWlLk6GJQsqaUBKTNV-1">
          <mxGeometry x="654" y="1769.9950000000001" width="120" height="60" as="geometry" />
        </mxCell>
        <mxCell id="P4ZK-sbLV9sFFXoKzWSB-54" value="" style="edgeStyle=orthogonalEdgeStyle;rounded=0;orthogonalLoop=1;jettySize=auto;html=1;" edge="1" parent="WIyWlLk6GJQsqaUBKTNV-1" source="P4ZK-sbLV9sFFXoKzWSB-46" target="P4ZK-sbLV9sFFXoKzWSB-53">
          <mxGeometry relative="1" as="geometry" />
        </mxCell>
        <mxCell id="P4ZK-sbLV9sFFXoKzWSB-46" value="You continue towards a house. You&#39;re home." style="rounded=1;whiteSpace=wrap;html=1;" vertex="1" parent="WIyWlLk6GJQsqaUBKTNV-1">
          <mxGeometry x="120" y="2000" width="120" height="60" as="geometry" />
        </mxCell>
        <mxCell id="P4ZK-sbLV9sFFXoKzWSB-53" value="Exit program after 3 seconds." style="whiteSpace=wrap;html=1;rounded=1;" vertex="1" parent="WIyWlLk6GJQsqaUBKTNV-1">
          <mxGeometry x="120" y="2140" width="120" height="60" as="geometry" />
        </mxCell>
      </root>
    </mxGraphModel>
  </diagram>
</mxfile>
